<svg xmlns="http://www.w3.org/2000/svg" xmlns:xlink="http://www.w3.org/1999/xlink" viewBox="0 0 1563 1563"><defs><linearGradient id="linear-gradient" x1="1385.47" y1="1005.46" x2="881.47" y2="999.11" gradientUnits="userSpaceOnUse"><stop offset="0"/><stop offset="0.01" stop-color="#090909"/><stop offset="0.05" stop-color="#373737"/><stop offset="0.09" stop-color="#626262"/><stop offset="0.14" stop-color="#888"/><stop offset="0.2" stop-color="#a8a8a8"/><stop offset="0.25" stop-color="#c4c4c4"/><stop offset="0.32" stop-color="#dadada"/><stop offset="0.4" stop-color="#ebebeb"/><stop offset="0.49" stop-color="#f6f6f6"/><stop offset="0.63" stop-color="#fdfdfd"/><stop offset="1" stop-color="#fff"/></linearGradient><linearGradient id="linear-gradient-2" x1="178.22" y1="603.61" x2="767.78" y2="603.61" xlink:href="#linear-gradient"/><linearGradient id="linear-gradient-3" x1="1389.49" y1="687.01" x2="885.49" y2="680.66" xlink:href="#linear-gradient"/><linearGradient id="linear-gradient-4" x1="651.77" y1="1338.03" x2="789.42" y2="855.2" gradientUnits="userSpaceOnUse"><stop offset="0.1" stop-color="gray"/><stop offset="0.11" stop-color="#848484"/><stop offset="0.23" stop-color="#a9a9a9"/><stop offset="0.37" stop-color="#c8c8c8"/><stop offset="0.5" stop-color="#e1e1e1"/><stop offset="0.65" stop-color="#f2f2f2"/><stop offset="0.81" stop-color="#fcfcfc"/><stop offset="1" stop-color="#fff"/></linearGradient><linearGradient id="linear-gradient-5" x1="555.18" y1="1339.04" x2="760.59" y2="815.98" xlink:href="#linear-gradient"/><linearGradient id="linear-gradient-6" x1="1249.88" y1="71.01" x2="1171.52" y2="193.83" xlink:href="#linear-gradient"/></defs><g id="Layer_1" data-name="Layer 1"><rect x="-192.32" y="-133.38" width="1920" height="1920"/></g><g id="Layer_3_copy_4" data-name="Layer 3 copy 4"><path d="M1422.44,788.41a30,30,0,0,1-29.93,30.07l-135,.31L1157,1258.22a30,30,0,0,1-29.24,23.31h-.41a30,30,0,0,1-29-24.1L1023.08,882l-11.24-56.09-9.72-48.53c18-19.74,34.85-38.39,50.09-55.4l10,49.76,11.39,56.86,56.11,280,74.7-326.39a30,30,0,0,1,29.17-23.31l158.82-.37h.08A30,30,0,0,1,1422.44,788.41Z" fill="url(#linear-gradient)"/><path d="M587.73,873.57c-3.42,7.85-24.26,33.32-49.74,63.38l-84.4-478.21-71,340a30,30,0,0,1-29.37,23.87H186.68a30,30,0,1,1,0-60H328.82L426.69,294a30,30,0,0,1,58.91.92Z" fill="url(#linear-gradient-2)"/><path d="M1240.73,609.17c-10.45,49.32-56.66,102.3-56.66,102.3s-48,51-110.5,117.1l-11.39-56.86c177.15-192,156.88-216.92,156.88-232.38C1235.14,566.26,1244.56,591.11,1240.73,609.17Z" fill="url(#linear-gradient-3)"/><path d="M1023.08,882C931.8,978.45,830,1085.68,799.94,1115.7c-58,58-67.5,66.74-146.26,102.66-29.08,13.26-128.58,39-151.88,31.85a113.81,113.81,0,0,1-55.6-37.45h.27c134.19,13.23,268-81,268-81,47.62-29.55,181.08-179.44,297.33-305.92Z" fill="url(#linear-gradient-4)"/><path d="M1002.12,777.35C873.8,918,686.61,1113.8,602.74,1159.86c-99.15,54.45-152,53.12-156.27,52.92h-.27c-33.8-41.81-37.67-106.23-1.57-157.38,28.22-40,64.94-84.9,93.36-118.43l24.44,138.47a30,30,0,0,0,58,4.22l86.39-260.71,177.43-.37a30,30,0,0,0,28.53-20.91l57.28-180.16Z" fill="url(#linear-gradient-5)"/><path d="M1133.94,628.69c-4.46,5.76-35.8,42-81.73,93.26L1006.1,491.84a30,30,0,0,0-58-3.19l-85.84,270L685.1,759a30,30,0,0,0-28.41,20.57L600.87,948l-13.14-74.43c11.32-25.94,37.77-87.91,55.64-140.63H812.66a30.5,30.5,0,0,0,0-61H660.06c.22-1.4.41-2.77.57-4.08,1.55-8,2.87-14.08,4.65-21.44,6.79.12,6.79.12,10.25.12H845.39a30.5,30.5,0,0,0,0-61h-161c19.25-47.94,41.68-74.7,54.31-80.57a83.19,83.19,0,0,1,55.42-4.41c14.72,4,82.48,33.12,134.77-18.87,79-78.54,12.39-118.45,36.64-146.31,28.38-32.61,105.88,31.77,105.88,31.77s70,65.42,120.21,132h0C1206.8,530.21,1165.83,587.53,1133.94,628.69Z" fill="url(#linear-gradient-6)"/></g></svg>